<svg viewBox="0 -40 512.00003 512" xmlns="http://www.w3.org/2000/svg"><path d="m343.457031 362.722656c-32.164062-.789062-52.59375-16.296875-64.351562-30.4375-10.535157-12.664062-15.160157-30.082031-20.511719-50.25-7.449219-28.058594-16.722656-62.980468-45.796875-95.132812-28.828125-31.875-64.476563-45.757813-95.929687-58-46.429688-18.078125-65.273438-27.058594-65.273438-68.222656 0-4.5.015625-14.253907 8.328125-25.484376-36.871094 24.335938-60.480469 55.011719-59.9101562 88.722657 1.4765622 87.734375 92.4296872 71.570312 146.6914062 131.578125 57.382813 63.457031 12.355469 125.179687 128.605469 170.308594 61.074218 23.710937 163.390625-7.652344 214.695312-134.332032-1.265625 1.601563-78.761718 72.910156-146.546875 71.25zm0 0" fill="#ea3942"/><path d="m512 199.609375c0 106.109375-89.289062 215.292969-204.53125 192.128906-122.59375-24.640625-74.570312-102.097656-131.953125-165.550781-54.265625-60.011719-151.0625-37.089844-151.0625-131.574219 0-85.605469 148.183594-108.464843 283.015625-87.132812 111.570312 17.652343 204.53125 86.019531 204.53125 192.128906zm0 0" fill="#f3e8d7"/><path d="m437.613281 59.148438c19.710938 27.394531 31.1875 59.996093 31.1875 97.261718 0 106.109375-89.289062 215.292969-204.53125 192.128906-17.398437-3.496093-31.359375-8.058593-42.671875-13.492187 11.472656 25.230469 32.507813 45.96875 85.871094 56.691406 115.242188 23.164063 204.53125-86.019531 204.53125-192.128906 0-59.414063-29.148438-106.992187-74.386719-140.460937zm0 0" fill="#e5d6c1"/><path d="m338.496094 356.910156c-17.21875.742188-34.457032-2.136718-50.28125-9.207031-10.714844-4.785156-20.847656-11.527344-27.710938-21.046875-7.46875-10.351562-10.53125-23.136719-13.726562-35.496094-6.796875-26.292968-15.132813-52.726562-30.664063-75.003906-22.9375-32.90625-59.59375-53.796875-97.242187-67.636719-13.257813-4.871093-27.019532-9.125-38.503906-17.355469-11.480469-8.226562-20.511719-21.507812-19.359376-35.585937 1.480469-18.089844 18.472657-30.769531 35.046876-38.171875 45.652343-20.390625 98.472656-23.367188 147.738281-19.65625 50.226562 3.78125 103.90625 12.980469 148.503906 37.414062 44.046875 24.132813 76.734375 65.804688 81.132813 116.527344 4.324218 49.902344-18.871094 103.75-57.613282 135.542969-21.671875 17.78125-49.46875 28.46875-77.320312 29.675781zm0 0" fill="#fc4e51"/><path d="m473.429688 191.691406c-3.890626-44.871094-29.925782-82.644531-66.367188-107.472656 12.429688 18.726562 20.507812 40.21875 22.535156 63.640625 4.324219 49.902344-18.867187 103.75-57.609375 135.542969-21.671875 17.78125-49.46875 28.472656-77.320312 29.675781-14.84375.644531-29.699219-1.417969-43.652344-6.523437 2.261719 7.152343 5.117187 14.042968 9.488281 20.101562 6.863282 9.519531 16.996094 16.257812 27.710938 21.046875 15.820312 7.070313 33.0625 9.949219 50.28125 9.203125 27.851562-1.203125 55.648437-11.890625 77.320312-29.675781 38.742188-31.792969 61.9375-85.640625 57.613282-135.539063zm0 0" fill="#ea3942"/><path d="m239.855469 107.191406c0 17.800782-14.433594 32.234375-32.238281 32.234375-17.800782 0-32.234376-14.433593-32.234376-32.234375 0-17.804687 14.433594-32.238281 32.234376-32.238281 17.804687 0 32.238281 14.433594 32.238281 32.238281zm0 0" fill="#f3e8d7"/><g fill="#912c2c"><path d="m79.683594 78.863281c-5.015625-.015625-9.179688.140625-12.601563.414063-3.214843 4.632812-5.382812 9.816406-5.996093 15.550781 2.5-.050781 5.589843-.148437 9.398437-.285156 36.488281-.488281 77.511719 6.65625 97.097656 10.574219 2.726563.601562 5.320313 1.140624 7.808594 1.636718.074219-5.523437 1.535156-10.707031 4.050781-15.226562-2.542968-.570313-5.203125-1.128906-7.980468-1.671875-18.273438-3.707031-55.699219-10.359375-91.777344-10.992188zm0 0"/><path d="m421.992188 321.839844c-5.019532-3.386719-11.964844-8.472656-16.351563-16.242188-4.230469-7.496094-7.121094-17.296875-10.925781-29.710937-5.160156-16.839844-11.582032-37.800781-24.085938-63.410157-11.929687-24.4375-34.097656-45.164062-57.039062-61.488281 17.179687-10.019531 58.496094-28.78125 123.507812-26.246093 0 0 5.136719.203124 11.796875.386718-3.84375-5.5-8.054687-10.761718-12.617187-15.738281-6.972656-.386719-13.5625-.589844-13.5625-.589844-69.234375.480469-110.140625 23.5625-123.464844 32.570313-20.683594-13.089844-40.378906-22.449219-52.09375-27.570313-2.65625-1.085937-5.152344-2.058593-7.515625-2.945312-.597656 5.289062-2.46875 10.1875-5.308594 14.382812 2.265625 1.09375 4.671875 2.195313 7.214844 3.296875 26.167969 11.613282 92.464844 44.726563 114.972656 90.828125 11.960938 24.503907 18.179688 44.808594 23.179688 61.121094 3.820312 12.46875 7.117187 23.195313 11.878906 32.15625 3.660156 6.890625 8.855469 12.839844 15.097656 17.523437.820313.617188 1.722657 1.289063 2.675781 2 2.203126-1.582031 4.371094-3.214843 6.464844-4.933593 2.109375-1.726563 4.160156-3.535157 6.175782-5.390625zm0 0"/></g></svg>