<svg viewBox="0 -121 511.99969 511" xmlns="http://www.w3.org/2000/svg"><path d="m101.246094 110.835938c-13.054688-10.894532-33.714844-8.835938-44.597656 2.203124-15.359376 15.570313-29.003907 34.859376-39.113282 54.871094-12.417968 24.570313-33.296875 83.300782 2.027344 99.179688 27.933594 12.554687 63.117188-27.703125 82.214844-42.816406 12.445312-9.851563 25.53125-19.914063 38.472656-28.625 14.023438-9.441407 17.527344-31.796876 5.507812-44.199219-13.941406-14.386719-29.152343-27.796875-44.511718-40.613281zm0 0" fill="#d38231"/><path d="m410.753906 110.835938c13.054688-10.894532 33.714844-8.835938 44.597656 2.203124 15.355469 15.570313 29.003907 34.859376 39.113282 54.871094 12.417968 24.570313 33.296875 83.300782-2.027344 99.179688-27.9375 12.554687-63.117188-27.703125-82.214844-42.816406-12.445312-9.851563-25.53125-19.914063-38.472656-28.625-14.023438-9.441407-17.527344-31.796876-5.507812-44.199219 13.941406-14.386719 29.152343-27.796875 44.511718-40.613281zm0 0" fill="#d38231"/><path d="m333.816406 54.292969c8.78125-11.257813 26.296875-15.820313 40.222656-11.542969 27.152344 8.347656 55.90625 21.828125 76.726563 42.386719 49.203125 48.589843-46.90625 134.082031-96.304687 125.476562-16.875-2.9375-33.941407-6.492187-50.582032-10.613281-17.441406-4.320312-30.605468-25.398438-23.152344-43.164062 14.820313-35.347657 29.914063-72.832032 53.089844-102.542969zm0 0" fill="#e88c38"/><path d="m178.179688 54.292969c-8.964844-12.347657-26.765626-15.226563-40.222657-11.539063-27.402343 7.507813-55.902343 21.828125-76.722656 42.386719-49.203125 48.589844 46.933594 134.074219 96.304687 125.476563 16.875-2.941407 33.984376-6.878907 50.582032-10.617188 18.117187-4.074219 30.058594-25.59375 23.152344-43.164062-14.191407-36.117188-30.15625-70.949219-53.09375-102.542969zm0 0" fill="#e88c38"/><path d="m351.441406 17.910156c-29.910156-16.308594-61.089844-17.191406-94.0625-17.410156-.105468 0-.210937 0-.316406 0s-.210938 0-.320312 0c-33.507813.214844-65.78125 1.289062-96.1875 17.414062-67.496094 35.789063.035156 164.007813 50.195312 181.984376 15.496094 5.550781 29.328125 4.640624 46.3125 5.179687 16.722656-.53125 28.652344.660156 44.183594-5.179687 50.6875-19.0625 117.316406-145.390626 50.195312-181.988282zm0 0" fill="#d38231"/><path d="m351.441406 17.910156c-29.910156-16.308594-61.089844-17.191406-94.0625-17.410156-.105468 0-.210937 0-.316406 0s-.210938 0-.320312 0c-33.507813.214844-65.78125 1.289062-96.1875 17.414062-67.496094 35.789063.035156 164.007813 50.195312 181.984376 15.496094 5.550781 29.328125 4.640624 46.3125 5.179687 16.722656-.53125 28.652344.660156 44.183594-5.179687 50.6875-19.0625 117.316406-145.390626 50.195312-181.988282zm0 0" fill="#d38231"/><path d="m505.371094 195.382812s-5.582032 10.976563-15.617188 15.835938c-27.5625 13.351562-36.75-27.996094-60.683594-32.507812-38.371093-7.230469-57.589843-15.492188-67.070312-21.328126-6.535156 12.660157-2.246094 30.1875 9.75 38.261719 12.9375 8.710938 26.027344 18.773438 38.472656 28.625 16.640625 13.171875 45.492188 45.425781 71.121094 45.203125 5.242188-.738281 8.945312-1.53125 10.84375-2.382812 25.28125-11.367188 21.773438-44.675782 13.183594-71.707032zm0 0" fill="#c6752c"/><path d="m303.875 200c16.644531 4.121094 33.710938 7.675781 50.582031 10.613281 21.59375 3.761719 52.109375-10.453125 75.515625-31.710937-.296875-.066406-.597656-.132813-.902344-.191406-54.207031-10.214844-70.21875-22.496094-74.496093-27.082032-1.066407-1.144531-2.589844-1.738281-4.148438-1.605468-23.949219 2.0625-46.898437 2.910156-68.132812 3.070312-.523438 1.246094-1.046875 2.5-1.566407 3.742188-7.453124 17.765624 5.707032 38.84375 23.148438 43.164062zm0 0" fill="#d38231"/><path d="m101.777344 224.269531c12.445312-9.851562 25.53125-19.914062 38.472656-28.625 12.03125-8.101562 16.308594-25.707031 9.6875-38.378906-9.414062 5.84375-28.636719 14.167969-67.257812 21.445313-23.933594 4.511718-33.121094 45.859374-60.683594 32.507812-10.035156-4.863281-15.617188-15.835938-15.617188-15.835938-.253906.800782-.503906 1.605469-.75 2.417969-.019531.074219-.042968.148438-.066406.222657-.492188 1.632812-.960938 3.28125-1.402344 4.945312-.03125.105469-.058594.210938-.085937.316406-.4375 1.652344-.847657 3.316406-1.226563 4.984375-.027344.113281-.050781.222657-.078125.335938-.171875.761719-.335937 1.53125-.496093 2.296875-.015626.078125-.03125.152344-.046876.230468-.171874.835938-.335937 1.675782-.492187 2.515626-.015625.085937-.03125.171874-.046875.261718-.136719.742188-.261719 1.484375-.382812 2.226563-.023438.140625-.046876.28125-.070313.417969-.132813.832031-.257813 1.660156-.371094 2.492187 0 .011719 0 .019531-.003906.035156-.105469.789063-.203125 1.578125-.292969 2.367188-.015625.164062-.035156.328125-.050781.492187-.085937.796875-.164063 1.589844-.230469 2.382813 0 .003906 0 .011719-.003906.019531-.0625.804688-.117188 1.601562-.160156 2.402344-.007813.164062-.015625.328125-.0234378.496094-.03125.679687-.0585937 1.359374-.0742187 2.035156-.0039063.121094-.0078125.246094-.0078125.371094-.015625.777343-.01953125 1.546874-.0078125 2.316406 0 .144531.0039063.285156.0078125.425781.0117188.644531.0351562 1.28125.0625 1.914063.0078125.171874.015625.34375.023437.515624.042969.75.09375 1.496094.160157 2.234376.007812.082031.019531.160156.027343.242187.0625.660156.136719 1.3125.222657 1.960937.023437.183594.046875.367188.074219.546876.097656.6875.203124 1.371093.324218 2.042968.007813.035156.011719.070313.019532.105469.128906.703125.277343 1.394531.433593 2.082031.042969.175782.085938.351563.128907.527344.136718.566406.285156 1.128906.445312 1.6875.039062.128906.074219.257812.109375.386719.195313.65625.410156 1.304687.636719 1.949219.050781.148437.109375.292968.164062.441406.191406.519531.390625 1.03125.601563 1.535156.066406.15625.128906.316406.199219.46875.269531.617188.550781 1.226562.851562 1.820312.050781.09375.101562.1875.148438.28125.265624.507813.542968 1.007813.835937 1.5.089844.15625.183594.3125.28125.46875.335937.550782.683594 1.089844 1.050781 1.617188.015625.023438.03125.046875.046875.066406.382813.546875.789063 1.070313 1.210938 1.589844.113281.140625.230469.28125.347656.417969.359375.425781.730469.847656 1.117187 1.253906.085938.09375.171876.191406.261719.285156.464844.480469.953125.945313 1.457031 1.402344.125.109375.253907.21875.378907.328125.417969.363281.847656.714844 1.292969 1.0625.136718.105469.273437.214844.414062.320312.554688.417969 1.132812.820313 1.730469 1.207032.105469.070312.21875.132812.324219.203125.515624.324219 1.046874.636719 1.589843.9375.175781.097656.355469.195312.53125.289062.660157.351563 1.335938.691407 2.039063 1.007813 1.898437.851562 5.605468 1.648437 10.851562 2.386718 25.691406.429688 54.671875-31.992187 71.367188-45.207031zm0 0" fill="#c6752c"/><path d="m81.988281 178.859375c23.414063 21.28125 53.957031 35.519531 75.550781 31.757813 16.875-2.941407 33.984376-6.878907 50.582032-10.617188 18.117187-4.074219 30.058594-25.59375 23.152344-43.164062-.492188-1.25-.988282-2.496094-1.484376-3.742188-21.328124-.152344-44.390624-.996094-68.464843-3.070312-1.558594-.132813-3.082031.460937-4.148438 1.605468-4.277343 4.585938-20.289062 16.867188-74.496093 27.082032-.234376.042968-.460938.097656-.691407.148437zm0 0" fill="#d38231"/><path d="m301.246094 199.894531c17.367187-6.527343 36.597656-25.648437 51.6875-49.433593-.777344-.351563-1.636719-.511719-2.507813-.4375-34.261719 2.953124-66.488281 3.421874-94.550781 2.933593-28.058594.488281-60.289062.019531-94.550781-2.933593-.808594-.070313-1.613281.0625-2.34375.363281 15.167969 24.058593 34.5 43.320312 51.773437 49.511719 15.492188 5.550781 29.328125 4.640624 46.3125 5.179687 16.71875-.53125 28.648438.660156 44.179688-5.183594zm0 0" fill="#c6752c"/></svg>