<svg viewBox="0 -78 511.99886 511" xmlns="http://www.w3.org/2000/svg"><path d="m327.777344 258.007812c-1.46875 0-2.964844-.238281-4.433594-.742187-7.125-2.449219-10.914062-10.210937-8.464844-17.335937 2.054688-5.972657 16.769532-36.785157 105.015625-56.652344 26.652344-6 42.296875-22.15625 50.722657-34.652344 10.351562-15.34375 15.496093-33.800781 13.765624-49.367188-1.324218-11.917968-6.949218-26.125-26.214843-26.125-20.203125 0-42.679688 10.972657-50.683594 26.320313-6.183594 11.859375-4.058594 34.023437-11.566406 33.964844-7.53125-.101563-13.558594-6.289063-13.460938-13.820313.027344-1.875.507813-18.820312 9.605469-36.269531 8.914062-17.09375 27.617188-37.476563 66.105469-37.476563 15.222656 0 28.328125 5.242188 37.894531 15.160157 8.515625 8.828125 13.851562 21.011719 15.433594 35.230469 4.921875 44.28125-26.410156 100.320312-85.609375 113.648437-41.785157 9.40625-63.582031 20.859375-74.511719 28.8125-7.707031 5.605469-10.6875 10.0625-10.699219 10.09375-1.945312 5.660156-7.234375 9.210937-12.898437 9.210937zm0 0" fill="#e2e2e2"/><path d="m287.414062 290.335938-32.621093-36.761719h-43.605469l-.113281.210937v-.210937h-43.605469l-32.621094 36.761719s-26.011718 11.757812-34.785156 25.855468c-1.828125 2.941406.273438 6.746094 3.738281 6.746094h214.660157c3.464843 0 5.566406-3.804688 3.738281-6.746094-8.773438-14.09375-34.785157-25.855468-34.785157-25.855468zm0 0" fill="#e2e2e2"/><path d="m322.195312 316.191406c-8.769531-14.097656-34.78125-25.855468-34.78125-25.855468l-32.621093-36.761719h-43.605469l-.113281.210937v-.210937h-15.996094l32.617187 36.761719s26.015626 11.761718 34.785157 25.855468c1.828125 2.941406-.273438 6.746094-3.738281 6.746094h59.71875c3.460937 0 5.566406-3.804688 3.734374-6.746094zm0 0" fill="#d8d6d4"/><path d="m6.226562 6.699219c-1.625 49.089843.1875 232.675781 128.621094 283.636719h152.453125c128.433594-50.960938 130.246094-234.546876 128.625-283.636719-.117187-3.457031-2.949219-6.199219-6.410156-6.199219h-396.878906c-3.464844 0-6.296875 2.742188-6.410157 6.199219zm0 0" fill="#e2e2e2"/><path d="m415.925781 6.699219c-.117187-3.457031-2.949219-6.199219-6.410156-6.199219h-53.554687c1.746093 37.03125 6.332031 236.382812-128.375 289.835938h59.71875c128.429687-50.960938 130.242187-234.546876 128.621093-283.636719zm0 0" fill="#d8d6d4"/><path d="m130.839844 65.757812h-28.488282c-3.695312 0-7.117187 1.960938-8.984374 5.148438l-16.699219 28.480469c-.9375 1.597656-1.429688 3.417969-1.429688 5.269531v60.457031c0 5.753907 4.664063 10.417969 10.414063 10.417969h61.886718c5.753907 0 10.417969-4.664062 10.417969-10.417969v-60.457031c0-1.851562-.496093-3.671875-1.433593-5.269531l-16.695313-28.480469c-1.871094-3.1875-5.292969-5.148438-8.988281-5.148438zm0 0" fill="#a0e557"/><path d="m139.824219 70.90625c-1.867188-3.1875-5.289063-5.148438-8.984375-5.148438h-28.488282c-1.441406 0-2.832031.304688-4.113281.859376v108.914062h49.300781c5.75 0 10.414063-4.664062 10.414063-10.417969v-60.457031c0-1.851562-.492187-3.671875-1.429687-5.269531zm0 0" fill="#93cc4a"/><path d="m385.300781 355.171875h-348.453125c-16.191406 0-30.546875-10.40625-35.582031-25.792969l-.960937-2.9375c-1.277344-3.902344 1.628906-7.914062 5.738281-7.914062h410.066406c4.105469 0 7.011719 4.011718 5.738281 7.914062l-.960937 2.9375c-5.039063 15.386719-19.394531 25.792969-35.585938 25.792969zm0 0" fill="#0d6e9a"/><path d="m416.109375 318.527344h-51.914063l-4.910156 15.007812c-4.226562 12.910156-16.265625 21.636719-29.847656 21.636719h55.863281c16.191407 0 30.550781-10.40625 35.585938-25.796875l.960937-2.933594c1.273438-3.902344-1.632812-7.914062-5.738281-7.914062zm0 0" fill="#09627a"/><path d="m116.597656 79.457031c4.289063 0 7.765625-3.476562 7.765625-7.765625v-71.191406h-15.535156v71.191406c0 4.289063 3.476563 7.765625 7.769531 7.765625zm0 0" fill="#a0796d"/></svg>