<svg viewBox="0 0 512 512" xmlns="http://www.w3.org/2000/svg"><path d="m512 256c0 141.386719-114.613281 256-256 256s-256-114.613281-256-256 114.613281-256 256-256 256 114.613281 256 256zm0 0" fill="#33d8dd"/><path d="m256 0c-10.050781 0-19.957031.597656-29.703125 1.726562 127.386719 14.71875 226.296875 122.9375 226.296875 254.273438s-98.910156 239.554688-226.296875 254.273438c9.746094 1.128906 19.652344 1.726562 29.703125 1.726562 141.386719 0 256-114.613281 256-256s-114.613281-256-256-256zm0 0" fill="#2cc6c2"/><path d="m468.363281 256c0 117.285156-95.078125 212.363281-212.363281 212.363281s-212.363281-95.078125-212.363281-212.363281 95.078125-212.363281 212.363281-212.363281 212.363281 95.078125 212.363281 212.363281zm0 0" fill="#8be8e5"/><path d="m256 43.636719c-10.164062 0-20.15625.730469-29.9375 2.109375 103.105469 14.550781 182.425781 103.132812 182.425781 210.253906s-79.320312 195.703125-182.425781 210.253906c9.78125 1.378906 19.773438 2.109375 29.9375 2.109375 117.285156 0 212.363281-95.078125 212.363281-212.363281s-95.078125-212.363281-212.363281-212.363281zm0 0" fill="#7cd1cd"/><path d="m339.378906 195.320312c10.191406 37.375-.542968 85.324219-35.660156 104.449219-28.28125 15.40625-28.847656 49.179688-63.125 58.527344-42.359375 11.550781-71-15.558594-103.398438-38.15625-23.910156-16.679687-50.878906-2.378906-64.441406-52.113281-14.019531-51.410156 27.027344-71.621094 42.027344-95.21875 17.589844-27.683594-6.296875-64.019532 53.339844-80.28125 52.988281-14.449219 69.851562 12.726562 101.769531 33.4375 25.738281 16.695312 53.519531 10.800781 69.488281 69.355468zm0 0" fill="#efefef"/><path d="m269.890625 125.960938c-31.921875-20.707032-48.78125-47.886719-101.769531-33.4375-13.617188 3.714843-22.871094 8.476562-29.265625 13.941406 27.679687 3.023437 43.035156 21.804687 66.570312 37.074218 25.738281 16.699219 53.519531 10.804688 69.488281 69.359376 10.191407 37.375-.546874 85.324218-35.660156 104.453124-18.265625 9.949219-24.980468 27.554688-36.675781 41.300782 11.601563 3.042968 24.0625 3.449218 38.015625-.355469 34.273438-9.347656 34.84375-43.121094 63.125-58.527344 35.113281-19.125 45.851562-67.074219 35.660156-104.449219-15.96875-58.554687-43.75-52.660156-69.488281-69.359374zm0 0" fill="#e5e5e5"/><path d="m282.929688 211.335938c-7.769532-28.484376-37.160157-45.28125-65.644532-37.511719-28.488281 7.769531-45.285156 37.160156-37.515625 65.644531 7.769531 28.488281 37.160157 45.285156 65.644531 37.515625 28.488282-7.769531 45.285157-37.160156 37.515626-65.648437zm0 0" fill="#fccf3f"/><path d="m282.917969 211.335938c-4.695313-17.226563-17.308594-30.167969-32.839844-35.996094l-47.1875 95.316406c12.21875 7.679688 27.492187 10.421875 42.515625 6.324219 28.484375-7.769531 45.28125-37.160157 37.511719-65.644531zm0 0" fill="#efa335"/><path d="m436.976562 189.4375c-21.855468-11.894531-43.707031-23.785156-65.5625-35.679688-1.378906-.75-3.074218.066407-3.375 1.609376-19.332031 99.441406-121.199218 153.679687-139.710937 253.570312-.183594.984375.292969 1.972656 1.171875 2.453125 21.855469 11.890625 43.710938 23.785156 65.566406 35.679687 1.378906.75 3.074219-.066406 3.375-1.609374 19.332032-99.441407 121.199219-153.679688 139.710938-253.570313.183594-.984375-.296875-1.976563-1.175782-2.453125zm0 0" fill="#fc4e51"/><path d="m415.710938 177.863281c-8.117188-4.417969-16.234376-8.835937-24.355469-13.253906-17.867188 101.996094-122.714844 156.359375-140.585938 258.355469 8.117188 4.417968 16.234375 8.832031 24.351563 13.25 17.871094-101.992188 122.71875-156.355469 140.589844-258.351563zm0 0" fill="#ffa9ad"/><path d="m438.152344 191.890625c.183594-.984375-.296875-1.976563-1.175782-2.453125-7.085937-3.859375-14.175781-7.714844-21.265624-11.574219-17.871094 101.996094-122.71875 156.359375-140.589844 258.351563 6.648437 3.621094 13.296875 7.234375 19.945312 10.855468 1.378906.75 3.074219-.066406 3.375-1.609374 19.332032-99.441407 121.199219-153.679688 139.710938-253.570313zm0 0" fill="#ea3942"/></svg>