<svg viewBox="-49 0 511 512" xmlns="http://www.w3.org/2000/svg"><path d="m389.949219 66.261719h-365.683594l60.753906 426.871093c1.539063 10.824219 10.804688 18.867188 21.738281 18.867188h200.699219c10.933594 0 20.199219-8.042969 21.738281-18.867188zm0 0" fill="#f3e8d7"/><path d="m329.886719 66.261719-63.441407 445.738281h41.007813c10.933594 0 20.203125-8.042969 21.742187-18.867188l60.753907-426.871093zm0 0" fill="#e5d8c6"/><path d="m352.050781 0h-289.886719c-4.125 0-7.683593 2.898438-8.519531 6.941406l-13.3125 64.53125h333.550781l-13.3125-64.53125c-.835937-4.042968-4.394531-6.941406-8.519531-6.941406zm0 0" fill="#464c50"/><path d="m364.21875 24.640625-3.648438-17.699219c-.835937-4.042968-4.394531-6.941406-8.519531-6.941406h-51.945312l2.832031 13.730469c2.316406 11.226562-6.253906 16.589843-17.714844 16.589843h-236.402344l-8.488281 41.15625h333.550781zm0 0" fill="#31363b"/><path d="m400.910156 107.210938h-387.605468c-7.074219 0-12.804688-5.730469-12.804688-12.804688v-33.953125c0-7.070313 5.734375-12.804687 12.804688-12.804687h387.605468c7.070313 0 12.804688 5.734374 12.804688 12.804687v33.953125c0 7.074219-5.734375 12.804688-12.804688 12.804688zm0 0" fill="#464c50"/><path d="m400.910156 47.648438h-46.65625v10.667968c0 20.261719-10.019531 31.535156-30.28125 31.535156h-304.253906c-7.074219 0-12.804688-5.730468-12.804688-12.800781l-6.414062 17.355469c0 7.074219 5.734375 12.804688 12.804688 12.804688h387.605468c7.070313 0 12.804688-5.730469 12.804688-12.804688v-33.953125c0-7.070313-5.734375-12.804687-12.804688-12.804687zm0 0" fill="#31363b"/><path d="m65.980469 440.019531-38.121094-267.839843c-.882813-6.21875 3.941406-11.78125 10.222656-11.78125h338.050781c6.277344 0 11.105469 5.5625 10.21875 11.78125l-38.117187 267.839843c-.726563 5.089844-5.082031 8.871094-10.222656 8.871094h-261.808594c-5.140625 0-9.496094-3.78125-10.222656-8.871094zm0 0" fill="#d38231"/><path d="m376.132812 160.398438h-47.910156l-41.058594 288.492187h50.847657c5.140625 0 9.496093-3.78125 10.222656-8.871094l38.121094-267.839843c.882812-6.21875-3.941407-11.78125-10.222657-11.78125zm0 0" fill="#c1752f"/><path d="m259.84375 246.484375c-22.683594-22.683594-64.6875-17.460937-93.8125 11.667969-29.128906 29.125-34.351562 71.128906-11.667969 93.8125 22.683594 22.683594 64.6875 17.460937 93.8125-11.667969 29.128907-29.125 34.351563-71.128906 11.667969-93.8125zm0 0" fill="#a0e557"/><path d="m259.847656 246.484375c-2.414062-2.414063-5.054687-4.488281-7.867187-6.273437-13.078125 7.140624-38.316407 23.925781-45.453125 50.097656-3.105469 11.390625-14.113282 24.9375-31.824219 39.164062-10.339844 8.308594-20.242187 14.617188-24.738281 17.363282 1.332031 1.796874 2.789062 3.515624 4.402344 5.128906 2.226562 2.226562 4.644531 4.175781 7.214843 5.871094 15.214844-9.65625 52.265625-35.578126 59.867188-63.457032 6.578125-24.121094 35.019531-39.308594 42.632812-42.992187-1.285156-1.714844-2.691406-3.355469-4.234375-4.902344zm0 0" fill="#93cc4a"/></svg>