<svg viewBox="-117 0 512 512" xmlns="http://www.w3.org/2000/svg"><path d="m278.644531 242.957031c0-125.605469.003907-126.984375.003907-128.378906 0-21.730469-17.613282-39.34375-39.34375-39.34375-.09375 0-.183594.003906-.277344.007813.175781-1.515626.277344-3.050782.277344-4.609376 0-21.730468-17.613282-39.34375-39.34375-39.34375-5.230469 0-10.222657 1.03125-14.789063 2.886719-4.566406-1.855469-9.554687-2.886719-14.789063-2.886719-4.714843 0-9.238281.832032-13.429687 2.355469-2.757813-19.027343-19.132813-33.644531-38.925781-33.644531-18.152344 0-33.421875 12.296875-37.960938 29.015625-4.167968-1.503906-8.660156-2.328125-13.34375-2.328125-21.730468 0-39.34375 17.617188-39.34375 39.34375 0 3.6875.519532 7.25 1.464844 10.632812-16.628906 4.59375-28.84375 19.824219-28.84375 37.914063 0 1.398437 0 2.765625.00390625 128.382813h278.64062475zm0 0" fill="#a0e557"/><path d="m239.304688 75.234375c-.09375 0-.183594.003906-.277344.007813.175781-1.515626.277344-3.050782.277344-4.609376 0-14.535156-7.890626-27.222656-19.613282-34.03125v206.355469h58.953125c0-115.792969.003907-126.011719.003907-127.992187 0-.167969 0-.277344 0-.386719 0-21.730469-17.617188-39.34375-39.34375-39.34375zm0 0" fill="#93cc4a"/><path d="m242.152344 170.722656c0 54.691406-44.339844 99.03125-99.03125 99.03125s-99.027344-44.339844-99.027344-99.03125 44.335938-99.027344 99.027344-99.027344 99.03125 44.335938 99.03125 99.027344zm0 0" fill="#fccf3f"/><path d="m144.679688 149c0-46.804688-25.046876-84.75-55.945313-84.75-30.894531 0-55.945313 37.945312-55.945313 84.75s25.050782 84.75 55.945313 84.75c30.898437 0 55.945313-37.945312 55.945313-84.75zm0 0" fill="#fc4e51"/><path d="m88.734375 64.25c-1.160156 0-2.3125.070312-3.457031.179688v169.144531c1.144531.105469 2.296875.175781 3.457031.175781 30.898437 0 55.945313-37.941406 55.945313-84.75 0-46.804688-25.046876-84.75-55.945313-84.75zm0 0" fill="#ea3942"/><path d="m255.011719 199.050781c0-46.808593-25.046875-84.75-55.945313-84.75-30.898437 0-55.945312 37.941407-55.945312 84.75 0 46.804688 25.046875 84.75 55.945312 84.75 30.898438 0 55.945313-37.945312 55.945313-84.75zm0 0" fill="#fc4e51"/><path d="m199.066406 114.300781c-1.238281 0-2.460937.082031-3.675781.203125v169.09375c1.214844.121094 2.4375.203125 3.675781.203125 30.898438 0 55.945313-37.945312 55.945313-84.75-.003907-46.808593-25.046875-84.75-55.945313-84.75zm0 0" fill="#ea3942"/><path d="m230.488281 512c26.597657 0 48.160157-19.734375 48.160157-44.074219v-337.828125c-138.933594 54.335938-237.726563 190.925782-268.496094 328.804688-6.113282 27.40625 16.582031 53.097656 47.144531 53.097656zm0 0" fill="#efa335"/><path d="m278.648438 130.097656c-20.566407 8.042969-40.242188 17.898438-58.957032 29.285156v308.542969c0 24.339844-21.5625 44.074219-48.160156 44.074219h58.957031c26.597657 0 48.160157-19.734375 48.160157-44.074219zm0 0" fill="#fd8f31"/><path d="m230.488281 512c26.597657 0 48.160157-19.734375 48.160157-44.074219v-85.453125c0-103.59375-80.28125-202.292968-179.230469-221.25-15.902344-3.046875-31.515625-7.21875-46.558594-12.835937-14.054687-5.25-31.890625-20.324219-52.859375-30.894531v350.433593c0 24.339844 21.5625 44.074219 48.160156 44.074219zm0 0" fill="#fccf3f"/><path d="m219.691406 467.925781c0 24.339844-21.558594 44.074219-48.160156 44.074219h58.957031c26.597657 0 48.160157-19.734375 48.160157-44.074219v-85.453125c0-55.144531-22.75-108.902344-58.957032-149.980468zm0 0" fill="#efa335"/></svg>