<svg viewBox="-28 0 512 512.00018" xmlns="http://www.w3.org/2000/svg"><path d="m32.433594 143.496094-30.40625 30.558594c-3.3125 3.328124-2.445313 8.914062 1.722656 11.078124l50.171875 26.085938 42.980469-43.199219-56.640625-25.941406c-2.648438-1.210937-5.773438-.648437-7.828125 1.417969zm0 0" fill="#fc4e51"/><path d="m423.964844 143.496094 30.410156 30.558594c3.308594 3.328124 2.441406 8.914062-1.722656 11.078124l-50.171875 26.085938-42.984375-43.199219 56.644531-25.941406c2.648437-1.210937 5.773437-.648437 7.824219 1.417969zm0 0" fill="#ea3942"/><path d="m359.492188 168.019531h-262.589844l-42.984375 43.199219h348.558593zm0 0" fill="#d8d8d8"/><path d="m372.511719 321.90625c0-109.964844.003906-111.171875.003906-112.394531 0-19.023438-15.421875-34.445313-34.445313-34.445313-.082031 0-.164062.003906-.246093.003906.15625-1.324218.246093-2.667968.246093-4.035156 0-19.023437-15.421874-34.445312-34.445312-34.445312-4.582031 0-8.949219.902344-12.949219 2.527344-3.996093-1.625-8.367187-2.527344-12.949219-2.527344-4.128906 0-8.085937.730468-11.753906 2.0625-2.417968-16.65625-16.753906-29.457032-34.082031-29.457032-15.890625 0-29.261719 10.769532-33.238281 25.402344-3.644532-1.3125-7.578125-2.035156-11.679688-2.035156-19.023437 0-34.445312 15.421875-34.445312 34.445312 0 3.226563.453125 6.347657 1.28125 9.308594-14.558594 4.023438-25.25 17.355469-25.25 33.195313v112.394531zm0 0" fill="#a0e557"/><path d="m198.058594 400.335938-3.175782-1.046876c-3.582031-1.183593-5.550781-5.03125-4.417968-8.632812l121.679687-385.828125c1.160157-3.671875 5.09375-5.683594 8.75-4.476563l13.621094 4.5c3.652344 1.207032 5.613281 5.167969 4.359375 8.808594l-132.128906 382.378906c-1.230469 3.566407-5.105469 5.484376-8.6875 4.296876zm0 0" fill="#f3e8d7"/><path d="m177.21875 372.121094 2.734375 1.921875c3.089844 2.167969 7.351563 1.457031 9.5625-1.605469l237.03125-327.851562c2.253906-3.121094 1.523437-7.480469-1.625-9.695313l-11.738281-8.242187c-3.152344-2.214844-7.503906-1.421876-9.671875 1.757812l-228.027344 334.175781c-2.125 3.117188-1.351563 7.371094 1.734375 9.539063zm0 0" fill="#f3e8d7"/><path d="m150.324219 183.800781s15.691406-15.382812 34.765625-36.917969c19.074218-21.539062 21.945312-68.609374 16.613281-72.679687s-15.179687 21.300781-35.277344 47.964844c-5.703125 7.5625-14.511719 13.046875-23.949219 18.234375-1.894531 1.039062-4.171874-.429688-4.046874-2.589844.203124-3.496094-.285157-7.402344-3.578126-6.96875-4.039062.53125-14.328124 14.644531-20.296874 23.320312-2.582032 3.746094-5.511719 7.238282-8.699219 10.480469-8.484375 8.625-11.125 18.761719-7.117188 37.921875 11.078125 52.917969 59.894531 56.609375 102.144531 59.070313 42.253907 2.460937 63.605469-3.046875 63.605469-3.046875 0-67.757813-114.164062-74.789063-114.164062-74.789063zm0 0" fill="#fccf3f"/><path d="m357.425781 271.675781c-12.921875 23.480469-52.410156 26.558594-88.199219 6.867188-35.792968-19.695313-50.816406-53.082031-41.410156-78.179688 13.144532-35.0625 72.574219-46.738281 79.941406-6.558593 11.324219 61.738281 62.589844 54.382812 49.667969 77.871093zm0 0" fill="#912c2c"/><path d="m53.921875 211.21875 49.753906 288.601562c1.210938 7.039063 7.316407 12.179688 14.457031 12.179688h220.132813c7.140625 0 13.246094-5.140625 14.460937-12.179688l49.75-288.601562zm0 0" fill="#fc4e51"/><path d="m341.214844 211.21875-51.851563 300.78125h48.902344c7.140625 0 13.246094-5.140625 14.460937-12.179688l49.75-288.601562zm0 0" fill="#ea3942"/><path d="m381.65625 332.007812h-306.910156l10.023437 58.144532h286.863281zm0 0" fill="#f3e8d7"/><path d="m310.367188 390.152344h61.265624l10.023438-58.144532h-61.265625zm0 0" fill="#e5d6c1"/><path d="m294.152344 362.8125c0 36.421875-29.527344 65.949219-65.953125 65.949219-36.421875 0-65.949219-29.527344-65.949219-65.949219 0-36.425781 29.527344-65.953125 65.949219-65.953125 36.425781 0 65.953125 29.527344 65.953125 65.953125zm0 0" fill="#efa335"/><path d="m259.765625 304.894531c5.121094 9.375 8.035156 20.132813 8.035156 31.566407 0 36.425781-29.527343 65.953124-65.949219 65.953124-11.4375 0-22.191406-2.914062-31.566406-8.035156 11.1875 20.484375 32.925782 34.382813 57.914063 34.382813 36.425781 0 65.953125-29.527344 65.953125-65.949219 0-24.988281-13.898438-46.726562-34.386719-57.917969zm0 0" fill="#fd8f31"/></svg>