<svg viewBox="-22 0 512 512.00024" xmlns="http://www.w3.org/2000/svg"><path d="m183.898438 378.886719-181-181c-3.863282-3.863281-3.863282-10.125 0-13.988281l181-181c3.863281-3.863282 10.125-3.863282 13.988281 0l181 181c3.863281 3.863281 3.863281 10.125 0 13.988281l-181 181c-3.863281 3.863281-10.125 3.863281-13.988281 0zm0 0" fill="#fccf3f"/><path d="m378.886719 183.898438-35.566407-35.570313-176.035156 176.035156c-3.863281 3.859375-10.125 3.859375-13.988281 0l-145.429687-145.433593-4.96875 4.96875c-3.863282 3.863281-3.863282 10.125 0 13.988281l181.003906 181c3.859375 3.863281 10.121094 3.863281 13.984375 0l181.003906-181c3.859375-3.863281 3.859375-10.125-.003906-13.988281zm0 0" fill="#efa335"/><path d="m161.121094 80.472656 27.464844 27.464844c1.273437 1.273438 3.339843 1.273438 4.617187 0l27.464844-27.464844c1.273437-1.273437 1.273437-3.339844 0-4.617187l-27.464844-27.464844c-1.277344-1.273437-3.34375-1.273437-4.617187 0l-27.464844 27.464844c-1.277344 1.277343-1.277344 3.34375 0 4.617187zm0 0" fill="#ffe092"/><path d="m217.484375 136.835938 27.464844 27.464843c1.273437 1.277344 3.339843 1.277344 4.617187 0l27.464844-27.464843c1.273438-1.273438 1.273438-3.339844 0-4.617188l-27.464844-27.464844c-1.277344-1.273437-3.34375-1.273437-4.617187 0l-27.464844 27.464844c-1.273437 1.277344-1.273437 3.34375 0 4.617188zm0 0" fill="#ffe092"/><path d="m273.847656 193.199219 27.464844 27.464843c1.273438 1.277344 3.339844 1.277344 4.617188 0l27.464843-27.464843c1.273438-1.273438 1.273438-3.339844 0-4.613281l-27.464843-27.464844c-1.277344-1.277344-3.34375-1.277344-4.617188 0l-27.464844 27.464844c-1.273437 1.273437-1.273437 3.339843 0 4.613281zm0 0" fill="#ffe092"/><path d="m378.886719 183.898438-35.566407-35.570313-176.035156 176.035156c-3.863281 3.859375-10.125 3.859375-13.988281 0l-145.429687-145.433593-4.96875 4.96875c-3.863282 3.863281-3.863282 10.125 0 13.988281l181.003906 181c3.859375 3.863281 10.121094 3.863281 13.984375 0l181.003906-181c3.859375-3.863281 3.859375-10.125-.003906-13.988281zm0 0" fill="#efa335"/><path d="m301.3125 220.664062c1.273438 1.277344 3.339844 1.277344 4.617188 0l27.464843-27.464843c1.273438-1.273438 1.273438-3.339844 0-4.617188l-15.164062-15.164062-32.082031 32.082031zm0 0" fill="#fccf3f"/><path d="m104.757812 136.835938 27.464844 27.464843c1.273438 1.277344 3.339844 1.277344 4.613282 0l27.464843-27.464843c1.277344-1.273438 1.277344-3.339844 0-4.617188l-27.464843-27.464844c-1.273438-1.273437-3.339844-1.273437-4.613282 0l-27.464844 27.464844c-1.277343 1.277344-1.277343 3.34375 0 4.617188zm0 0" fill="#ffe092"/><path d="m161.121094 193.199219 27.464844 27.464843c1.273437 1.277344 3.339843 1.277344 4.617187 0l27.464844-27.464843c1.273437-1.273438 1.273437-3.339844 0-4.613281l-27.464844-27.464844c-1.277344-1.277344-3.34375-1.277344-4.617187 0l-27.464844 27.464844c-1.277344 1.273437-1.277344 3.339843 0 4.613281zm0 0" fill="#ffe092"/><path d="m48.394531 193.199219 27.464844 27.464843c1.273437 1.277344 3.339844 1.277344 4.613281 0l27.464844-27.464843c1.277344-1.273438 1.277344-3.339844 0-4.613281l-27.464844-27.464844c-1.273437-1.277344-3.339844-1.277344-4.613281 0l-27.464844 27.464844c-1.277343 1.273437-1.277343 3.339843 0 4.613281zm0 0" fill="#ffe092"/><path d="m104.757812 249.5625 27.464844 27.464844c1.273438 1.277344 3.339844 1.277344 4.613282 0l27.464843-27.464844c1.277344-1.273438 1.277344-3.339844 0-4.613281l-27.464843-27.464844c-1.273438-1.277344-3.339844-1.277344-4.613282 0l-27.464844 27.464844c-1.277343 1.273437-1.277343 3.339843 0 4.613281zm0 0" fill="#ffe092"/><path d="m161.121094 305.925781 27.464844 27.464844c1.273437 1.277344 3.339843 1.277344 4.617187 0l27.464844-27.464844c1.273437-1.273437 1.273437-3.339843 0-4.613281l-27.464844-27.464844c-1.277344-1.277344-3.34375-1.277344-4.617187 0l-27.464844 27.464844c-1.277344 1.273438-1.277344 3.339844 0 4.613281zm0 0" fill="#ffe092"/><path d="m396.003906 511.726562-248.945312-59.574218c-5.3125-1.273438-8.589844-6.609375-7.316406-11.921875l59.574218-248.945313c1.269532-5.3125 6.605469-8.589844 11.917969-7.320312l248.949219 59.574218c5.3125 1.273438 8.585937 6.609376 7.316406 11.921876l-59.574219 248.949218c-1.269531 5.3125-6.609375 8.585938-11.921875 7.316406zm0 0" fill="#fccf3f"/><path d="m460.183594 243.539062-48.363282-11.570312-57.726562 241.222656c-1.269531 5.3125-6.605469 8.585938-11.917969 7.316406l-200.585937-48-1.847656 7.726563c-1.273438 5.308594 2.003906 10.648437 7.316406 11.917969l248.949218 59.574218c5.3125 1.269532 10.648438-2.003906 11.917969-7.316406l59.574219-248.949218c1.269531-5.3125-2.003906-10.648438-7.316406-11.921876zm0 0" fill="#efa335"/><path d="m220.484375 269.316406 37.773437 9.039063c1.753907.417969 3.515626-.660157 3.933594-2.414063l9.042969-37.777344c.417969-1.75-.664063-3.511718-2.417969-3.933593l-37.773437-9.039063c-1.753907-.417968-3.515625.660156-3.933594 2.414063l-9.039063 37.777343c-.421874 1.75.660157 3.511719 2.414063 3.933594zm0 0" fill="#ffe092"/><path d="m298.003906 287.867188 37.777344 9.039062c1.75.421875 3.511719-.660156 3.933594-2.414062l9.039062-37.777344c.417969-1.75-.664062-3.511719-2.414062-3.933594l-37.777344-9.039062c-1.75-.417969-3.511719.664062-3.933594 2.414062l-9.039062 37.777344c-.417969 1.75.660156 3.515625 2.414062 3.933594zm0 0" fill="#ffe092"/><path d="m375.527344 306.417969 37.773437 9.039062c1.753907.421875 3.515625-.660156 3.933594-2.414062l9.042969-37.777344c.417968-1.75-.664063-3.511719-2.417969-3.933594l-37.773437-9.039062c-1.753907-.417969-3.515626.664062-3.933594 2.414062l-9.039063 37.777344c-.421875 1.753906.660157 3.515625 2.414063 3.933594zm0 0" fill="#ffe092"/><path d="m393.003906 310.597656 20.296875 4.859375c1.753907.417969 3.515625-.660156 3.933594-2.414062l9.039063-37.777344c.421874-1.753906-.660157-3.511719-2.414063-3.933594l-20.296875-4.855469zm0 0" fill="#fccf3f"/><g fill="#ffe092"><path d="m201.929688 346.835938 37.777343 9.042968c1.753907.417969 3.511719-.664062 3.933594-2.417968l9.039063-37.773438c.421874-1.753906-.660157-3.515625-2.414063-3.933594l-37.773437-9.039062c-1.753907-.421875-3.515626.660156-3.9375 2.414062l-9.039063 37.773438c-.417969 1.753906.664063 3.515625 2.414063 3.933594zm0 0"/><path d="m279.453125 365.386719 37.777344 9.042969c1.75.417968 3.511719-.664063 3.933593-2.417969l9.039063-37.773438c.417969-1.753906-.664063-3.515625-2.414063-3.933593l-37.777343-9.039063c-1.753907-.421875-3.511719.660156-3.933594 2.414063l-9.039063 37.773437c-.417968 1.753906.660157 3.515625 2.414063 3.933594zm0 0"/><path d="m356.976562 383.941406 37.773438 9.039063c1.753906.417969 3.515625-.664063 3.933594-2.414063l9.042968-37.777344c.417969-1.753906-.664062-3.511718-2.417968-3.933593l-37.773438-9.039063c-1.753906-.421875-3.515625.660156-3.933594 2.414063l-9.039062 37.773437c-.421875 1.753906.660156 3.515625 2.414062 3.9375zm0 0"/><path d="m183.378906 424.359375 37.777344 9.039063c1.753906.421874 3.511719-.660157 3.933594-2.414063l9.039062-37.777344c.421875-1.75-.660156-3.511719-2.414062-3.933593l-37.773438-9.039063c-1.753906-.417969-3.515625.664063-3.9375 2.414063l-9.039062 37.777343c-.417969 1.75.664062 3.515625 2.414062 3.933594zm0 0"/><path d="m260.902344 442.910156 37.773437 9.039063c1.753907.417969 3.515625-.660157 3.9375-2.414063l9.039063-37.777344c.417968-1.75-.664063-3.511718-2.414063-3.933593l-37.777343-9.039063c-1.753907-.417968-3.511719.664063-3.933594 2.414063l-9.039063 37.777343c-.417969 1.75.660157 3.515626 2.414063 3.933594zm0 0"/><path d="m338.421875 461.460938 37.777344 9.039062c1.753906.417969 3.511719-.660156 3.933593-2.414062l9.039063-37.777344c.417969-1.75-.660156-3.511719-2.414063-3.933594l-37.773437-9.039062c-1.753906-.417969-3.515625.664062-3.9375 2.414062l-9.039063 37.777344c-.417968 1.753906.664063 3.515625 2.414063 3.933594zm0 0"/></g><path d="m376.199219 470.5c1.753906.421875 3.511719-.660156 3.933593-2.414062l9.039063-37.777344c.421875-1.75-.660156-3.511719-2.414063-3.933594l-20.296874-4.855469-10.558594 44.121094zm0 0" fill="#fccf3f"/><path d="m394.75 392.976562c1.753906.421876 3.511719-.660156 3.933594-2.410156l9.039062-37.777344c.421875-1.753906-.660156-3.511718-2.414062-3.933593l-20.296875-4.855469-10.558594 44.121094zm0 0" fill="#fccf3f"/></svg>