<svg viewBox="-57 0 512 512.00024" xmlns="http://www.w3.org/2000/svg"><path d="m381.929688 52.269531c-132.238282 0-251.960938 53.601563-338.621094 140.261719l315.472656 315.46875c8.542969 8.542969 23.148438 2.492188 23.148438-9.589844zm0 0" fill="#efa335"/><path d="m323.410156 55.820312v416.808594l35.371094 35.371094c8.542969 8.542969 23.148438 2.492188 23.148438-9.589844v-446.140625c-19.8125 0-39.339844 1.210938-58.519532 3.550781zm0 0" fill="#fd8f31"/><path d="m349.359375 133.882812c0 14.328126-11.621094 25.945313-25.949219 25.945313-14.332031 0-25.949218-11.617187-25.949218-25.945313 0-14.332031 11.617187-25.949218 25.949218-25.949218 14.328125 0 25.949219 11.617187 25.949219 25.949218zm0 0" fill="#fc4e51"/><path d="m323.410156 107.933594v51.894531c14.332032 0 25.949219-11.617187 25.949219-25.945313 0-14.332031-11.621094-25.949218-25.949219-25.949218zm0 0" fill="#ea3942"/><path d="m245.363281 299.421875c0 12.957031-10.503906 23.464844-23.460937 23.464844-12.960938 0-23.464844-10.507813-23.464844-23.464844s10.503906-23.460937 23.464844-23.460937c12.957031 0 23.460937 10.503906 23.460937 23.460937zm0 0" fill="#fc4e51"/><path d="m359.074219 295.886719c0 13.566406-10.996094 24.5625-24.558594 24.5625s-24.558594-10.996094-24.558594-24.5625c0-13.5625 10.996094-24.558594 24.558594-24.558594s24.558594 10.996094 24.558594 24.558594zm0 0" fill="#fc4e51"/><path d="m334.515625 271.328125c-4 0-7.769531.960937-11.105469 2.65625v43.804687c3.335938 1.695313 7.105469 2.660157 11.105469 2.660157 13.5625 0 24.558594-10.996094 24.558594-24.5625 0-13.5625-10.996094-24.558594-24.558594-24.558594zm0 0" fill="#ea3942"/><path d="m326.234375 362.558594h-5.675781c-14.730469 0-26.675782 11.941406-26.675782 26.675781 0 3.976563 3.222657 7.203125 7.203126 7.203125h7.1875c1.617187 0 2.90625 1.355469 2.820312 2.972656l-.597656 11.199219c-.183594 3.457031 2.570312 6.359375 6.03125 6.359375h13.734375c3.464843 0 6.21875-2.902344 6.035156-6.359375l-.597656-11.199219c-.085938-1.617187 1.199219-2.972656 2.816406-2.972656h7.191406c3.976563 0 7.203125-3.222656 7.203125-7.203125 0-14.734375-11.945312-26.675781-26.675781-26.675781zm0 0" fill="#dfede7"/><path d="m221.902344 196.492188v6.6875c0 17.363281 14.074218 31.4375 31.441406 31.4375 4.6875 0 8.488281-3.796876 8.488281-8.484376v-8.476562c0-1.90625 1.597657-3.421875 3.5-3.320312l13.199219.703124c4.078125.214844 7.5-3.03125 7.5-7.109374v-16.191407c0-4.078125-3.421875-7.324219-7.5-7.109375l-13.199219.703125c-1.902343.101563-3.5-1.414062-3.5-3.320312v-8.476563c0-4.6875-3.800781-8.484375-8.488281-8.484375-17.367188 0-31.441406 14.078125-31.441406 31.441407zm0 0" fill="#dfede7"/><path d="m370.496094.0195312c-1.351563-.0117187-2.703125-.0195312-4.058594-.0195312-139.855469 0-266.472656 56.6875-358.125 148.339844-.128906.128906-.257812.257812-.386719.386718-10.578125 10.605469-10.566406 27.953126.027344 38.546876l19.839844 19.835937c10.695312 10.699219 28.199219 10.695313 38.890625-.007813l.195312-.195312c.054688-.058594.113282-.113281.167969-.167969 9.078125-9.066406 23.871094-8.8125 32.742187.460938l40.402344 42.261719c5.488282 5.742187 14.578125 5.84375 20.195313.226562 5.617187-5.617188 5.71875-14.910156.230469-20.652344l-29.082032-30.417968c-5.371094-5.621094-5.675781-14.585938-.316406-20.21875 5.726562-6.011719 15.238281-5.964844 20.910156-.035157l9.15625 9.578125c5.371094 5.621094 14.3125 6.324219 20.179688 1.222656 6.261718-5.445312 6.644531-14.953124.972656-20.886718l-6.640625-6.945313c-10.75-11.242187-7.472656-29.746093 6.53125-36.515625 55.675781-26.90625 118.128906-41.996094 184.113281-41.996094 1.253906 0 2.503906.007813 3.757813.019532 15.121093.136718 27.425781-12.132813 27.425781-27.253906v-28.28125c0-15.007813-12.121094-27.15625-27.128906-27.2851568zm0 0" fill="#fccf3f"/><path d="m370.496094.0195312c-1.351563-.0117187-2.703125-.0195312-4.058594-.0195312-9.453125 0-18.84375.269531-28.171875.777344v.230468 82.746094c9.3125-.609375 18.703125-.929687 28.171875-.929687 1.253906 0 2.507812.003906 3.757812.015625 15.121094.136718 27.429688-12.128906 27.429688-27.25v-28.285156c0-15.007813-12.121094-27.15625-27.128906-27.2851568zm0 0" fill="#efa335"/></svg>