<svg viewBox="0 -5 512.00058 512" xmlns="http://www.w3.org/2000/svg"><path d="m8.113281 166.351562-1.203125-3.8125c-1.355468-4.308593 1-8.90625 5.289063-10.324218l459.605469-151.796875c4.371093-1.441407 9.082031.96875 10.46875 5.359375l5.160156 16.367187c1.382812 4.394531-1.09375 9.070313-5.503906 10.394531l-463.5625 139.242188c-4.328126 1.300781-8.894532-1.117188-10.253907-5.429688zm0 0" fill="#e88c38"/><path d="m14.734375 187.769531.550781 3.957031c.625 4.476563 4.726563 7.621094 9.207032 7.058594l480.273437-60.144531c4.570313-.570313 7.789063-4.769531 7.15625-9.332031l-2.363281-16.996094c-.636719-4.5625-4.878906-7.722656-9.429688-7.027344l-478.460937 73.179688c-4.464844.683594-7.554688 4.828125-6.933594 9.304687zm0 0" fill="#e88c38"/><g fill="#e2e2e2"><path d="m214.261719 148.777344c0-16.027344 3.566406-23.605469 7.695312-32.382813 4.050781-8.613281 9.167969-22.449219 10.652344-39.851562.347656-4.09375-3.582031-7.222657-7.480469-5.9375l-12.710937 4.199219c-2.171875.71875-3.710938 2.667968-3.890625 4.949218-.898438 11.371094-3.960938 17.898438-7.421875 25.257813-4.789063 10.179687-10.21875 21.71875-10.21875 43.765625 0 22.050781 5.425781 33.589844 10.214843 43.773437 4.128907 8.777344 7.695313 16.355469 7.695313 32.386719 0 16.035156-3.566406 23.613281-7.695313 32.390625-4.789062 10.183594-10.214843 21.722656-10.214843 43.769531 0 6.957032 5.230469 12.59375 11.6875 12.59375s11.6875-5.636718 11.6875-12.59375c0-16.03125 3.566406-23.609375 7.695312-32.386718 4.789063-10.183594 10.214844-21.722657 10.214844-43.773438 0-22.046875-5.425781-33.585938-10.214844-43.769531-4.128906-8.777344-7.695312-16.359375-7.695312-32.390625zm0 0"/><path d="m162.023438 148.777344c0-16.027344 3.5625-23.605469 7.691406-32.382813 2.773437-5.894531 5.757812-12.261719 7.777344-20.859375 1.027343-4.359375-3.082032-8.175781-7.335938-6.773437l-14.144531 4.671875c-1.621094.535156-2.914063 1.78125-3.53125 3.375-1.089844 2.8125-2.324219 5.453125-3.617188 8.203125-4.789062 10.179687-10.21875 21.71875-10.21875 43.765625 0 22.050781 5.429688 33.589844 10.21875 43.773437 4.125 8.777344 7.691407 16.355469 7.691407 32.386719s-3.566407 23.613281-7.691407 32.390625c-4.789062 10.179687-10.21875 21.722656-10.21875 43.769531 0 6.957032 5.234375 12.59375 11.6875 12.59375 6.457031 0 11.691407-5.636718 11.691407-12.59375 0-16.03125 3.5625-23.609375 7.691406-32.386718 4.789062-10.183594 10.21875-21.726563 10.21875-43.773438s-5.429688-33.589844-10.21875-43.769531c-4.128906-8.777344-7.691406-16.359375-7.691406-32.390625zm0 0"/><path d="m109.78125 148.777344c0-16.027344 3.566406-23.605469 7.695312-32.382813.015626-.035156.03125-.070312.050782-.109375 2.128906-4.53125-2.199219-9.414062-6.957032-7.84375l-15.53125 5.132813c-1.65625.546875-2.976562 1.808593-3.570312 3.445312-2.847656 7.894531-5.0625 17.679688-5.0625 31.757813 0 22.050781 5.425781 33.589844 10.214844 43.773437 4.128906 8.777344 7.695312 16.355469 7.695312 32.386719s-3.566406 23.613281-7.695312 32.390625c-4.789063 10.179687-10.214844 21.722656-10.214844 43.769531 0 6.957032 5.230469 12.59375 11.6875 12.59375s11.6875-5.636718 11.6875-12.59375c0-16.03125 3.566406-23.609375 7.695312-32.386718 4.789063-10.183594 10.214844-21.726563 10.214844-43.773438s-5.425781-33.589844-10.214844-43.769531c-4.128906-8.777344-7.695312-16.359375-7.695312-32.390625zm0 0"/><path d="m57.539062 148.777344c0-5.664063.445313-10.273438 1.203126-14.253906.820312-4.292969-3.230469-7.894532-7.382813-6.523438l-12.730469 4.203125c-2.144531.710937-3.65625 2.617187-3.890625 4.867187-.367187 3.550782-.574219 7.429688-.574219 11.707032 0 22.050781 5.425782 33.589844 10.214844 43.773437 4.128906 8.777344 7.695313 16.355469 7.695313 32.386719 0 16.035156-3.566407 23.613281-7.695313 32.390625-4.789062 10.183594-10.214844 21.722656-10.214844 43.769531 0 6.957032 5.230469 12.59375 11.6875 12.59375 6.457032 0 11.6875-5.636718 11.6875-12.59375 0-16.03125 3.566407-23.609375 7.695313-32.386718 4.789063-10.183594 10.214844-21.722657 10.214844-43.773438 0-22.046875-5.425781-33.585938-10.214844-43.769531-4.128906-8.777344-7.695313-16.359375-7.695313-32.390625zm0 0"/></g><path d="m4.464844 280.453125c-2.644532 0-4.707032 2.277344-4.4414065 4.90625 4.5820315 45.84375 24.6171875 130.140625 107.3164065 182.839844.644531.410156 1.34375.722656 2.066406.9375v17.808593c0 8.75 7.09375 15.847657 15.847656 15.847657h201.140625c8.75 0 15.84375-7.097657 15.84375-15.847657v-17.835937c.695313-.21875 1.367188-.515625 1.984375-.910156 82.699219-52.699219 102.738282-136.996094 107.320313-182.839844.261719-2.628906-1.800781-4.90625-4.441407-4.90625zm0 0" fill="#87a4f4"/><path d="m447.101562 280.453125h-59.671874c2.644531 0 4.703124 2.277344 4.441406 4.90625-4.582032 45.84375-24.617188 130.140625-107.316406 182.839844-.621094.394531-1.289063.691406-1.984376.910156v17.835937c0 8.75-7.09375 15.847657-15.847656 15.847657h59.671875c8.75 0 15.84375-7.097657 15.84375-15.847657v-17.835937c.695313-.21875 1.367188-.515625 1.984375-.910156 82.699219-52.699219 102.738282-136.996094 107.320313-182.839844.261719-2.628906-1.800781-4.90625-4.441407-4.90625zm0 0" fill="#7c9ce5"/><path d="m342.238281 486.945312v-17.832031h-232.902343c.023437.007813.046874.019531.070312.027344v17.804687c0 8.753907 7.09375 15.847657 15.847656 15.847657h201.140625c8.75 0 15.84375-7.09375 15.84375-15.847657zm0 0" fill="#6b97d6"/><path d="m282.570312 486.945312c0 8.75-7.09375 15.847657-15.84375 15.847657h59.667969c8.75 0 15.84375-7.097657 15.84375-15.847657v-17.832031h-59.667969zm0 0" fill="#5884ba"/></svg>