<svg viewBox="0 -92 512.001 512" xmlns="http://www.w3.org/2000/svg"><path d="m395.523438 139.847656c13.21875 40.601563 74.53125 28.992188 74.53125 68.039063 0 35.664062-110.011719 57.777343-145.761719 59.617187l-149.023438 2.773438c-95.46875 0-164.648437-26.035156-164.648437-104.269532 0-78.234374 70.578125-162.957031 171.488281-162.957031 95.308594 0 189.097656 62.085938 213.414063 136.796875zm0 0" fill="#d87e35"/><path d="m433.277344 172.589844c-6.398438-2.679688-13.84375-1.28125-18.707032 3.667968-25.664062 26.144532-107.996093 41.976563-138.007812 43.519532l-149.023438 2.769531c-43.601562 0-81.714843-5.433594-110.261718-18.789063 19.464844 49.109376 79.9375 66.519532 157.992187 66.519532l149.023438-2.773438c35.746093-1.835937 145.761719-23.953125 145.761719-59.617187 0-21.226563-18.117188-27.484375-36.777344-35.296875zm0 0" fill="#c67030"/><path d="m439.980469 7.707031c-5.269531 7.167969-4.246094 15.847657-2.476563 21.835938 1.355469 4.585937-.300781 9.519531-4.164062 12.332031l-66.191406 47.960938c-8.058594 5.839843-9.824219 17.125-3.933594 25.148437 5.886718 8.019531 17.183594 9.714844 25.167968 3.773437l65.582032-48.789062c3.84375-2.84375 9.046875-2.945312 13.015625-.28125 5.183593 3.484375 13.160156 7.0625 21.574219 4.175781 11.03125-3.777343 15.675781-16.015625 11.035156-26.707031-3.648438-8.402344-11.484375-12.914062-19.453125-12.914062-1.714844 0-3.175781-.855469-4.082031-2.113282-.925782-1.238281-1.304688-2.886718-.792969-4.523437 2.386719-7.601563.429687-16.433594-6.496094-22.425781-8.8125-7.632813-21.875-6.863282-28.785156 2.527343zm0 0" fill="#e2e2e2"/><path d="m196.855469 237.125c27.472656 37.417969 81.855469 44.171875 121.464843 15.089844 18.636719-13.683594 29.953126-32.328125 37.0625-54.492188 9.445313-29.441406 23.277344-53.171875 46.371094-74.359375 5.84375-5.363281 6.929688-13.949219 2.492188-19.988281l-17.667969-24.0625c-4.433594-6.042969-12.953125-7.578125-19.816406-3.609375-27.132813 15.6875-53.917969 21.78125-84.835938 21.976563-23.273437.144531-44.453125 5.359374-63.089843 19.042968-39.609376 29.078125-49.449219 82.988282-21.980469 120.402344zm0 0" fill="#e88c38"/><path d="m404.246094 103.371094-17.667969-24.0625c-1.425781-1.941406-4.136719-2.917969-7.191406-3.339844-8.167969-1.121094-16.28125 2.242188-21.710938 8.445312-18.488281 21.125-36.375 48.832032-43.753906 71.84375-7.109375 22.164063-18.429687 40.808594-37.066406 54.492188-27.152344 19.9375-61.25 23.027344-88.859375 10.945312 2.332031 5.363282 5.269531 10.539063 8.863281 15.429688 27.46875 37.414062 81.851563 44.171875 121.460937 15.085938 18.636719-13.679688 29.957032-32.328126 37.0625-54.488282 9.445313-29.441406 23.277344-53.171875 46.371094-74.363281 5.84375-5.359375 6.929688-13.945313 2.492188-19.988281zm0 0" fill="#d38231"/><path d="m497.671875 264.347656h-483.34375c-7.914063 0-14.328125 6.414063-14.328125 14.328125 0 7.914063 6.414062 14.328125 14.328125 14.328125h28.015625c3.570312 0 6.789062 2.160156 8.136719 5.46875l4.90625 12.003906c4.585937 11.226563 15.507812 18.566407 27.636719 18.566407h345.953124c12.128907 0 23.050782-7.339844 27.636719-18.566407l4.90625-12.003906c1.347657-3.308594 4.566407-5.46875 8.136719-5.46875h28.015625c7.914063 0 14.328125-6.414062 14.328125-14.328125 0-7.914062-6.414062-14.328125-14.328125-14.328125zm0 0" fill="#e2e2e2"/><path d="m497.671875 264.347656h-44.5625c0 15.828125-12.828125 28.65625-28.65625 28.65625h-.34375c-.183594 0-.363281.015625-.546875.019532h-380.945312c3.457031.109374 6.546874 2.226562 7.863281 5.445312l4.089843 10.007812h344.109376c-.394532.761719-.769532 1.539063-1.097657 2.347657l-3.496093 8.5625c-2.386719 5.839843-8.066407 9.652343-14.375 9.652343h49.265624c12.128907 0 23.050782-7.335937 27.636719-18.5625l4.90625-12.007812c1.351563-3.304688 4.566407-5.464844 8.136719-5.464844h28.015625c7.914063 0 14.328125-6.414062 14.328125-14.328125 0-7.914062-6.414062-14.328125-14.328125-14.328125zm0 0" fill="#d8d6d4"/></svg>