<svg viewBox="0 0 512.0005 512.0005" xmlns="http://www.w3.org/2000/svg"><path d="m489.898438 132.023438c-6.699219-6.703126-17.566407-6.703126-24.269532 0l19.023438-19.023438c23.652344-23.652344 23.652344-62 0-85.652344s-62-23.652344-85.652344 0l-19.023438 19.023438c6.703126-6.703125 6.703126-17.570313 0-24.269532-29.464843-29.46875-77.242187-29.46875-106.707031 0l-251.167969 251.167969c-29.46875 29.464844-29.46875 77.242188 0 106.707031 6.699219 6.703126 17.566407 6.703126 24.269532 0l-19.027344 19.027344c-23.652344 23.648438-23.652344 62 0 85.648438 23.652344 23.652344 62 23.652344 85.652344 0l19.023437-19.023438c-6.699219 6.703125-6.699219 17.570313 0 24.269532 29.46875 29.46875 77.242188 29.46875 106.710938 0l251.167969-251.167969c29.46875-29.464844 29.46875-77.242188 0-106.707031zm0 0" fill="#efa335"/><path d="m27.347656 484.652344c-23.652344-23.648438-23.652344-62 0-85.648438l371.65625-371.65625c23.648438-23.652344 62-23.652344 85.648438 0 23.652344 23.652344 23.652344 62 0 85.652344l-371.652344 371.652344c-23.652344 23.652344-62 23.652344-85.652344 0zm0 0" fill="#fc4e51"/><path d="m484.652344 27.347656c-7.632813-7.636718-16.800782-12.789062-26.511719-15.496094 5.679687 20.367188.523437 43.121094-15.492187 59.140626l-371.65625 371.65625c-16.019532 16.015624-38.773438 21.171874-59.140626 15.492187 2.703126 9.710937 7.859376 18.878906 15.492188 26.511719 23.652344 23.652344 62 23.652344 85.652344 0l371.65625-371.652344c23.652344-23.652344 23.652344-62 0-85.652344zm0 0" fill="#ea3942"/><path d="m379.976562 22.101562c-.109374-.113281-.21875-.222656-.332031-.332031-16.488281-16.289062-43.148437-15.933593-59.539062.457031l-297.878907 297.878907c-16.386718 16.390625-16.746093 43.050781-.457031 59.539062.109375.113281.21875.222657.332031.332031 6.699219 6.703126 17.566407 6.703126 24.269532 0l333.605468-333.605468c6.703126-6.703125 6.703126-17.570313 0-24.269532zm0 0" fill="#fd8f31"/><path d="m313.191406 74.652344c-6.746094 6.746094-18.65625 1.714844-29.433594 9.664062-17.957031 13.25-16.558593 23.375-28.808593 35.625-15.578125 15.578125-25.488281 13.964844-36.414063 24.890625-17.679687 17.679688-15.742187 33.269531-27.261718 46.441407-13.167969 11.519531-28.757813 9.578124-46.4375 27.261718-10.925782 10.925782-9.316407 20.835938-24.894532 36.414063-12.25 12.25-22.371094 10.851562-35.625 28.808593-7.949218 10.777344-2.917968 22.6875-9.664062 29.433594-14.257813 14.257813-35.210938 26.882813-11.597656 50.101563l300.238281-300.238281c-23.214844-23.617188-35.84375-2.660157-50.101563 11.597656zm0 0" fill="#a0e557"/><path d="m496.15625 139.140625c-3.671875 9.644531-9.371094 18.695313-17.144531 26.464844l-313.40625 313.40625c-7.769531 7.769531-16.820313 13.46875-26.464844 17.140625 29.601563 23.019531 72.390625 20.949218 99.589844-6.253906l251.167969-251.167969c27.203124-27.199219 29.273437-69.988281 6.257812-99.589844zm0 0" fill="#fd8f31"/><path d="m437.347656 198.808594c-6.746094 6.746094-1.710937 18.65625-9.664062 29.433594-13.25 17.957031-23.375 16.558593-35.625 28.808593-15.578125 15.578125-13.964844 25.488281-24.890625 36.414063-17.679688 17.679687-33.269531 15.742187-46.441407 27.261718-11.519531 13.167969-9.578124 28.757813-27.257812 46.441407-10.925781 10.925781-20.835938 9.3125-36.417969 24.890625-12.25 12.25-10.847656 22.371094-28.808593 35.625-10.773438 7.949218-22.6875 2.917968-29.433594 9.664062-14.257813 14.257813-26.882813 35.210938-50.101563 11.597656l300.238281-300.238281c23.617188 23.21875 2.660157 35.84375-11.597656 50.101563zm0 0" fill="#a0e557"/><path d="m446.324219 76.503906c-9.390625 9.390625-17.9375 9.648438-28.761719 9.976563-11.949219.363281-25.496094.773437-39.21875 14.496093-13.722656 13.722657-14.132812 27.269532-14.496094 39.21875-.328125 10.824219-.585937 19.371094-9.976562 28.761719-9.390625 9.386719-17.9375 9.648438-28.761719 9.976563-11.949219.359375-25.492187.769531-39.21875 14.492187-13.722656 13.722657-14.132813 27.269531-14.492187 39.21875-.328126 10.824219-.589844 19.371094-9.976563 28.761719-9.390625 9.390625-17.941406 9.648438-28.761719 9.976562-11.953125.363282-25.496094.773438-39.222656 14.496094-13.722656 13.722656-14.132812 27.269532-14.492188 39.21875-.328124 10.824219-.589843 19.371094-9.976562 28.761719-9.390625 9.390625-17.941406 9.652344-28.765625 9.980469-11.949219.363281-25.496094.773437-39.222656 14.5-13.722657 13.722656-14.132813 27.269531-14.496094 39.21875-.328125 10.824218-.589844 19.375-9.980469 28.765625-3.019531 3.019531-3.019531 7.910156 0 10.929687 1.507813 1.507813 3.488282 2.261719 5.464844 2.261719s3.953125-.753906 5.460938-2.261719c13.726562-13.726562 14.136718-27.273437 14.5-39.222656.328124-10.824219.585937-19.371094 9.980468-28.765625 9.390625-9.390625 17.9375-9.652344 28.761719-9.980469 11.953125-.363281 25.496094-.773437 39.222656-14.496094 13.722657-13.726562 14.132813-27.269531 14.496094-39.222656.328125-10.820312.585937-19.371094 9.976563-28.757812 9.386718-9.390625 17.9375-9.652344 28.761718-9.980469 11.949219-.359375 25.496094-.769531 39.21875-14.492187 13.722656-13.726563 14.132813-27.269532 14.496094-39.222657.328125-10.820312.585938-19.367187 9.972656-28.757812 9.390625-9.390625 17.941406-9.648438 28.761719-9.976563 11.949219-.363281 25.496094-.773437 39.21875-14.496094 13.722656-13.722656 14.132813-27.269531 14.496094-39.21875.328125-10.824218.585937-19.371093 9.976562-28.761718s17.9375-9.648438 28.761719-9.976563c11.949219-.363281 25.496094-.773437 39.21875-14.496093 3.015625-3.015626 3.015625-7.90625 0-10.925782-3.015625-3.015625-7.910156-3.015625-10.925781 0zm0 0" fill="#f3e8d7"/></svg>