<svg viewBox="0 -118 512.0139 512" xmlns="http://www.w3.org/2000/svg"><path d="m49.808594 275.464844h414.117187c4.441407-2.953125 27.882813-40.613282 24.148438-57.171875-3.777344-16.757813 6.738281-38.851563.082031-54.445313-6.652344-15.585937-22.90625-21.574218-32.269531-35.621094-9.242188-13.867187-7.148438-38.566406-18.875-50.5625-11.777344-12.042968-34.808594-8.738281-48.242188-18.019531-13.601562-9.394531-20.292969-33.179687-35.230469-39.589843-14.933593-6.40625-35.140624 5.84375-51.046874 2.582031-15.703126-3.21875-30.214844-22.6289065-46.507813-22.6289065-16.296875 0-30.808594 19.4101565-46.511719 22.6289065-15.90625 3.261719-36.113281-8.988281-51.046875-2.582031-14.9375 6.410156-21.628906 30.195312-35.230469 39.589843-13.429687 9.28125-36.464843 5.976563-48.242187 18.019531-11.726563 11.996094-9.632813 36.695313-18.875 50.5625-9.363281 14.046876-25.617187 20.03125-32.269531 35.621094-6.65625 15.59375 3.859375 37.6875.082031 54.445313-3.738281 16.558593 21.476563 54.21875 25.917969 57.171875zm0 0" fill="#a0e557"/><path d="m190.019531 65.59375c-34.066406-34.066406-90.554687-32.8125-126.167969 2.800781-35.613281 35.613281-36.867187 92.101563-2.796874 126.167969 34.066406 34.066406 90.550781 32.8125 126.164062-2.800781 35.617188-35.613281 36.867188-92.101563 2.800781-126.167969zm0 0" fill="#fd8f31"/><path d="m121.570312 187.226562c-14.492187 0-27.925781-5.453124-37.824218-15.355468-21.5-21.5-20.246094-57.738282 2.800781-80.785156 11.703125-11.707032 26.960937-18.152344 42.960937-18.152344 14.492188 0 27.921876 5.453125 37.824219 15.351562 10.222657 10.226563 15.671875 24.113282 15.339844 39.101563-.34375 15.527343-6.785156 30.332031-18.140625 41.6875-11.703125 11.707031-26.964844 18.152343-42.960938 18.152343zm0 0" fill="#efa335"/><path d="m448.101562 68.398438c-35.613281-35.613282-92.097656-36.867188-126.167968-2.800782-34.066406 34.066406-32.8125 90.554688 2.800781 126.167969s92.101563 36.867187 126.167969 2.800781c34.066406-34.070312 32.8125-90.554687-2.800782-126.167968zm0 0" fill="#fd8f31"/><path d="m390.394531 187.226562c14.488281 0 27.921875-5.453124 37.824219-15.355468 21.5-21.5 20.242188-57.738282-2.800781-80.785156-11.707031-11.707032-26.964844-18.152344-42.964844-18.152344-14.488281 0-27.921875 5.453125-37.820313 15.351562-10.226562 10.226563-15.675781 24.113282-15.339843 39.101563.34375 15.527343 6.785156 30.332031 18.136719 41.6875 11.707031 11.707031 26.964843 18.152343 42.964843 18.152343zm0 0" fill="#efa335"/><g fill="#fc4e51"><path d="m107.164062 224.3125c-3.421874-23.347656-30.101562-38.769531-59.59375-34.453125-29.492187 4.320313-50.632812 26.746094-47.210937 50.09375 3.417969 23.34375 30.097656 38.769531 59.589844 34.449219 29.492187-4.316406 50.632812-26.742188 47.214843-50.089844zm0 0"/><path d="m464.445312 189.839844c-29.496093-4.320313-56.175781 11.105468-59.59375 34.449218-3.417968 23.347657 17.71875 45.773438 47.210938 50.09375 29.496094 4.316407 56.175781-11.105468 59.59375-34.453124 3.417969-23.34375-17.71875-45.773438-47.210938-50.089844zm0 0"/><path d="m307.191406 65.695312c0-19.679687-22.925781-35.632812-51.210937-35.632812-28.28125 0-51.210938 15.953125-51.210938 35.632812 0 19.679688 22.929688 35.632813 51.210938 35.632813 28.285156 0 51.210937-15.953125 51.210937-35.632813zm0 0"/></g><path d="m255.980469 53.914062c-118.785157 0-215.738281 93.480469-221.296875 210.890626-.273438 5.808593 4.402344 10.660156 10.21875 10.660156h422.15625c5.816406 0 10.496094-4.847656 10.222656-10.660156-5.5625-117.410157-102.515625-210.890626-221.300781-210.890626zm0 0" fill="#fccf3f"/><path d="m255.980469 53.914062c-10.058594 0-19.957031.683594-29.660157 1.984376 108.324219 14.503906 191.871094 107.273437 191.871094 219.566406h48.867188c5.816406 0 10.496094-4.847656 10.222656-10.660156-5.5625-117.410157-102.515625-210.890626-221.300781-210.890626zm0 0" fill="#efa335"/></svg>